<?xml version="1.0" encoding="utf-8"?>
<!-- Generator: Adobe Illustrator 24.1.0, SVG Export Plug-In . SVG Version: 6.00 Build 0)  -->
<svg version="1.1" id="Calque_1" xmlns="http://www.w3.org/2000/svg" xmlns:xlink="http://www.w3.org/1999/xlink" x="0px" y="0px"
	 viewBox="0 0 836 631" style="enable-background:new 0 0 836 631;" xml:space="preserve">
<style type="text/css">
	.st0{fill:#FFFFFF;}
	.st1{font-family:'DastinRegular';}
	.st2{font-size:27px;}
</style>
<g>
	<path class="st0" d="M526.5,317.3c-0.2,0-0.5,0-0.5-0.1c-0.5-0.7-0.9-1.5-1.4-2.3c-3.7-6.4-8.6-11.5-14.9-15.4
		c-4.6-2.8-9.6-4.7-14.9-5.7c-5.2-1-10.4-1.3-15.7-0.8c-9.1,0.7-17.7,3-26.2,6.2c-10.6,4-20.5,9.4-29.4,16.5
		c-11.3,9-20.2,20-26.5,33.1c-1,2.1-1.9,4.4-2.7,6.6c-0.3,0.8-0.6,1.7-0.7,2.6c-0.3,2.7-0.6,5.5-0.9,8.3c-0.1,0.5,0.3,0.9,0.9,0.9
		c0.9,0,1.8,0.1,2.7,0.1c18.3,0.1,36.6,0.2,54.9,0.3c5.6,0,11.3,0.1,16.9,0.1c0.9,0,1.8,0.1,2.7,0.1c0.4,0,0.7,0.4,0.8,0.8
		c0,0.2,0.1,0.4,0.1,0.6c0,0.6,0,1.2,0,1.8c-0.1,21.3-0.2,42.6-0.3,63.8c0,1.3-0.1,2.6-0.1,3.9c0,0.5-0.5,0.8-1.1,0.6
		c-0.3-0.1-0.6-0.2-0.8-0.3c-0.9-0.4-1.8-0.7-2.8-1.1c-13.6-5.2-27.5-9.3-41.8-12.2c-6.5-1.3-13-2.4-19.6-3.3
		c-4.8-0.6-9.6-1.1-14.5-1.4c-10.2-0.8-20.4-0.8-30.6-0.5c-4.7,0.1-9.5,0.6-14.2,1c-4,0.4-8.1,0.9-12.1,1.4
		c-4.9,0.7-9.8,1.5-14.6,2.5c-12.4,2.5-24.6,5.8-36.6,10c-2.3,0.8-4.7,1.7-7,2.5c-0.2,0.1-0.7-0.2-0.7-0.4c0-0.3-0.1-0.6-0.1-0.9
		c0-0.6,0-1.2,0-1.8c0.1-21.1,0.2-42.2,0.3-63.2c0-1.4,0.1-2.8,0.1-4.1c0-0.5,0.5-0.9,1-0.9c1,0,2,0,3,0c27,0.2,54,0.4,81,0.5
		c1.1,0,2.2,0,3.3-0.1c0.3,0,0.8-0.4,0.8-0.8c0.1-0.6,0.1-1.2,0.1-1.8c0.2-11.2,0.3-22.4-0.2-33.5c-0.1-1.3-0.1-2.6-0.1-3.9
		c-0.2-5.9-0.6-11.9-1.1-17.8c-0.4-4.5-0.8-9.1-1.4-13.6c-1.7-13.2-4.1-26.2-8.3-38.8c-2.2-6.8-5-13.3-8.5-19.5
		c-2.4-4.2-5.2-8.2-8.4-11.9c-7.8-8.9-17.5-14.7-28.9-17.6c-4-1-8.1-1.6-12.3-2c-4.7-0.4-9.5-0.4-14.2-0.1
		c-7.5,0.5-14.9,1.6-22.3,3.1c-0.4,0.1-0.8-0.1-0.7-0.3c0.1-0.1,0.2-0.3,0.4-0.4c0.2-0.2,0.5-0.3,0.8-0.4c0.6-0.3,1.2-0.6,1.9-0.9
		c7-3.3,14.3-5.6,21.9-7.3c4.7-1.1,9.5-1.8,14.4-2.2c3.6-0.3,7.3-0.3,11-0.3c10.4,0,20.5,1.7,30.4,4.7c0.8,0.3,1.7,0.5,2.6,0.7
		c0.1,0,0.4-0.1,0.5-0.3c0.2-0.3,0.3-0.7,0.4-1.1c1.9-7.7,4.5-15.2,7.7-22.4c4.1-9.2,9.2-17.7,15.5-25.5c5.5-6.7,11.8-12.6,19-17.3
		c5.7-3.8,11.8-6.8,18.4-8.9c0.8-0.2,1.5-0.5,2.3-0.2l-0.1-0.1c-0.8,0.8-1.9,1.1-2.8,1.6c-8.2,4.4-15.5,9.8-22,16.5
		c-7.6,7.7-13.4,16.6-17,26.9c-2.2,6.2-3.5,12.6-4,19.1c-0.4,5-0.2,9.9,0.2,14.8c0.3,3.1,0.7,6.1,1.2,9.1c1,6.1,2.1,12.1,3.5,18.1
		c1.8,7.5,4,14.9,7,22c2,4.8,4.3,9.3,7.1,13.7c2.1,3.2,4.4,6.1,7,8.8c6.4,6.5,14.1,10.5,23.1,11.9c2.2,0.4,4.5,0.5,6.8,0.6
		c4.2,0.2,8.3-0.7,12.1-2.5c3.5-1.6,6.7-3.8,9.6-6.4c3.5-3.1,6.5-6.6,9.2-10.5c5.2-7.5,8.7-15.8,10.5-24.7
		c1.3-6.3,1.6-12.6,0.7-18.9c-1.2-8.4-4.3-16-9.5-22.7c-0.5-0.7-1.1-1.4-1.6-2.1c-0.1-0.1-0.1-0.2-0.1-0.3c0.1-0.2,0.3-0.2,0.5-0.1
		c8.8,7.1,15.7,15.6,20,26.1c2.7,6.5,3.8,13.3,3.5,20.3c-0.2,5.7-1.5,11.2-3.5,16.5c-0.3,0.9-0.7,1.9-1,2.8
		c-0.1,0.2,0.2,0.6,0.5,0.6c0.5,0,1,0.1,1.5,0.1c7.7,0.2,15.1,1.5,22.4,4.2c7.9,2.9,15,7.2,20.9,13.2c4.6,4.6,8.1,10,10.8,15.9
		c2.1,4.6,3.6,9.4,4.6,14.4C526.3,316,526.4,316.7,526.5,317.3C526.4,317.3,526.5,317.3,526.5,317.3z"/>
	<path class="st0" d="M331.4,327.4c0.3-0.3,0.5-0.6,0.8-0.8c8.1-4.5,16.2-9,24.3-13.6c0.3-0.1,0.6-0.2,0.8-0.3
		c0.2-0.1,0.6,0.3,0.6,0.5c0,0.3,0.1,0.6,0.1,0.9c-0.7,10.2-4.9,18.6-12.9,25c-4.4,3.5-9.5,5.8-15,6.7c-7.1,1.1-14,0.3-20.5-2.9
		c-0.3-0.1-0.5-0.3-0.8-0.4c-0.4-0.2-0.5-0.6-0.6-1c0-0.4-0.1-0.8-0.1-1.2c-0.8-13.1,6.1-25.4,17.6-31.6c4.8-2.6,9.9-3.9,15.3-4
		c4.3-0.1,8.5,0.6,12.5,2.2c0.5,0.2,0.6,0.8,0.2,1.2c-0.2,0.2-0.4,0.4-0.7,0.6c-0.5,0.4-0.9,0.7-1.4,1.1c-6.2,5-12.3,9.9-18.5,14.9
		c-0.8,0.6-1.5,1.3-2.3,1.9C331.2,326.9,331.3,327.2,331.4,327.4c-0.5-0.3-0.9-0.3-1.4,0c-0.2,0.1-0.4,0.2-0.5,0.2
		c0.2-0.2,0.2-0.2,0.2,0.1c0-0.1-0.1-0.1-0.1-0.2C330.1,327.5,330.7,327.5,331.4,327.4z"/>
	<path class="st0" d="M382.5,216c0-0.2,0-0.4-0.1-0.5c-0.6-0.4-1.1-0.8-1.7-1.1c-3.6-2.1-7.1-4.2-10.7-6.4c-0.6-0.3-1.2-0.6-1.6-1.2
		c0.1-0.4,0.4-0.7,0.8-0.8c4-1.9,8.2-2.7,12.7-2c6.9,1.2,12,4.8,15.4,10.9c1.4,2.5,2.1,5.3,2.4,8.2c0.1,0.9-0.3,1.5-1,2
		c-2.9,1.9-6,3-9.4,3.4c-9.9,1-19.5-4.9-22.5-15.4c-0.2-0.7-0.2-1.4-0.3-2c0-0.3,0.3-0.6,0.6-0.5c0.7,0.2,1.3,0.4,2,0.6
		c4,1.5,7.9,3,11.9,4.6C381.4,215.9,382,216.1,382.5,216c0.3,0.6,0.9,0.5,1.4,0.4c0.1,0,0.2,0,0.2,0c0.1,0.2,0,0.3-0.2,0.2
		c0,0-0.1-0.1-0.1-0.2C383.5,216.1,383.1,215.9,382.5,216z"/>
	<path class="st0" d="M324.8,179.4c0.2,0.1,0.3,0.2,0.5,0.3c3.7,3.8,7.4,7.7,11.1,11.5c0.3,0.4,0.7,0.7,0.5,1.3
		c-9,3-22.7-2.5-25.6-15.9c-0.5-2.2-0.6-4.3-0.4-6.5c0-0.7,0.2-1.4,0.4-2c0.1-0.6,0.5-1.1,1.1-1.3c0.6-0.2,1.1-0.4,1.7-0.5
		c12.6-3.1,24.4,5.6,26,17.4c0.2,1.7,0.5,3.3,0.1,5c-0.1,0.2-0.5,0.5-0.7,0.3c-0.3-0.2-0.7-0.4-1-0.6c-1-0.7-1.9-1.4-2.9-2.1
		c-2.9-2.1-5.7-4.2-8.6-6.3c-0.4-0.3-0.8-0.6-1.3-0.8C325.4,179.3,325,179.4,324.8,179.4c0.1-0.4-0.1-0.8-0.4-1.1c0,0.2,0,0.2-0.1,0
		c0,0,0.1,0,0.1,0C324.6,178.8,324.7,179.1,324.8,179.4z"/>
	<path class="st0" d="M480.4,207.6c-0.7,0.2-1.1,0.8-1.6,1.2c-3,2.9-6,5.8-9,8.7c-0.4,0.3-0.7,0.7-1.1,1c-0.2,0.2-0.7,0-0.7-0.2
		c-0.1-0.3-0.3-0.5-0.3-0.8c-1-6.5,0.2-12.4,4.5-17.5c4.7-5.5,10.7-7.9,17.9-7.6c0.2,0,0.4,0,0.6,0.1c2.9,0.5,2.8,0.2,3.5,3.1
		c2.9,11.5-4.1,22.6-14.8,25.5c-2.4,0.7-4.8,1-7.3,0.7c-0.5-0.1-0.8-0.6-0.5-1.1c0.2-0.2,0.3-0.5,0.5-0.7c0.5-0.7,1-1.4,1.6-2.2
		c2-2.8,4.1-5.6,6.1-8.4c0.3-0.5,0.8-0.9,0.8-1.5c0.3-0.1,0.5-0.3,0.5-0.7c0.3-0.2,0.6-0.3,0.9-0.5c-0.3,0.1-0.3,0-0.1-0.1
		c0,0.1,0.1,0.1,0.1,0.2c-0.2,0-0.4,0-0.6,0.1c-0.1,0.1-0.2,0.3-0.3,0.4C480.8,206.9,480.6,207.2,480.4,207.6z"/>
	<path class="st0" d="M405.9,266.1c-0.2,0.2-0.3,0.5-0.6,0.6c-4.6,2.6-9.1,5.1-13.7,7.6c-0.5,0.3-1,0-1-0.6
		c0.4-10.5,8.4-18.4,17.5-19.9c4.3-0.7,8.2-0.1,12.2,1.5c1,0.4,1.5,1,1.6,2.2c0.5,9.9-6.2,19.6-17.2,21.7c-3.7,0.7-7.5,0.5-11.1-0.9
		c-0.4-0.2-0.6-0.6-0.2-0.9c0.4-0.4,0.9-0.8,1.3-1.1c3.1-2.5,6.2-5,9.2-7.4c0.8-0.6,1.6-1.2,2.2-2
		C406.1,266.6,406,266.3,405.9,266.1c0.4,0.3,0.8,0.4,1.2,0.1c0.2-0.1,0.5-0.2,0.7-0.3c-0.2,0.2-0.2,0.2-0.2-0.1
		c0,0.1,0.1,0.1,0.1,0.2C407.2,266,406.5,266,405.9,266.1z"/>
	<path class="st0" d="M459.7,186.7c-0.2,0.2-0.4,0.2-0.5,0.4c-0.4,1.3-0.8,2.6-1.2,4c-1,3.5-2,7-3,10.5c-0.2,0.7-0.5,1.3-0.7,1.9
		c-0.5,0.1-0.8-0.1-1.1-0.4c-2.2-2.5-3.8-5.3-4.6-8.5c-2.8-10.4,2.6-21,12.4-25c0.5-0.2,0.9-0.3,1.4-0.5c0.5-0.2,1,0,1.4,0.3
		c0.1,0.1,0.2,0.1,0.2,0.2c11.1,10,8.8,27.6-4.3,34.5c-0.3,0.2-0.7,0.3-1.1,0.4c-0.2,0.1-0.4-0.1-0.4-0.3c0-0.7,0-1.4,0.1-2.1
		c0.5-4.4,1-8.8,1.5-13.2C459.8,188.1,459.8,187.4,459.7,186.7z"/>
	<path class="st0" d="M338.6,284.2c0.3,0,0.6,0.1,0.9,0c0.8-0.4,1.6-0.8,2.4-1.3c3.5-2,7.1-3.9,10.6-5.9c0.4-0.2,0.9-0.5,1.5-0.3
		c0,0.4,0.1,0.9,0.1,1.4c-1.1,10.7-8.7,17.1-16.3,18.8c-4.8,1-9.4,0.6-13.9-1.5c-0.7-0.3-1-0.8-1.1-1.6c-0.6-9.5,5.3-19.2,16.3-21.9
		c3.9-1,7.8-0.7,11.7,0.6c0.3,0.1,0.6,0.3,0.7,0.5c0.2,0.4-0.2,0.7-0.5,0.9c-0.2,0.2-0.5,0.4-0.7,0.6c-2.1,1.7-4.2,3.3-6.2,5
		c-1.5,1.2-3.1,2.5-4.6,3.7C339,283.6,338.6,283.8,338.6,284.2c-0.4-0.1-0.7,0.1-0.9,0.5c0,0.1,0,0.2,0,0.3c0.3-0.1,0.5-0.1,0.8-0.2
		C338.7,284.6,338.8,284.5,338.6,284.2z"/>
	<path class="st0" d="M306.6,230.8c0.6,0.1,1.1-0.3,1.6-0.6c3.7-2.1,7.4-4.1,11.1-6.2c0.6-0.3,1.2-0.6,1.8-0.9
		c0.4-0.2,0.8,0.1,0.8,0.6c0,0.7,0,1.4-0.1,2.1c-1.5,9.7-8.6,16.5-17.6,18c-4.2,0.7-8.3,0.1-12.1-1.7c-0.9-0.4-1.4-1-1.4-2
		c-0.4-10.4,6.4-19.2,16.2-21.6c4-1,8-0.7,11.9,0.7c0.5,0.2,0.6,0.8,0.2,1.1c-0.2,0.2-0.4,0.4-0.7,0.6c-1.2,0.9-2.3,1.9-3.5,2.8
		c-2.6,2.1-5.2,4.2-7.8,6.3C306.8,230.2,306.5,230.4,306.6,230.8c-0.6-0.2-1,0.4-1.6,0.4c0.1,0,0.1-0.1,0.2-0.1
		c0,0.1,0.1,0.1,0.1,0.2c-0.2,0.1-0.2,0.1-0.2-0.1c0.2,0,0.4,0,0.6,0.1C306.1,231.4,306.4,231.2,306.6,230.8z"/>
	<path class="st0" d="M286.1,174.1c0.3,0.1,0.6,0.2,0.8,0.4c3.8,3.9,7.6,7.8,11.3,11.7c0.2,0.2,0.4,0.5,0.5,0.7
		c0.1,0.1-0.1,0.5-0.1,0.5c-0.7,0.2-1.5,0.5-2.3,0.6c-11.8,1.3-20.9-6.4-23.2-16c-0.7-3-0.7-6.1-0.2-9.1c0.1-0.5,0.4-0.9,0.9-1.1
		c1-0.3,2.1-0.7,3.1-0.9c4.2-0.6,8.3-0.4,12.2,1.3c8.3,3.6,12.9,11.7,12.8,19.4c0,0.6,0,1.2-0.1,1.8c0,0.4-0.5,0.7-0.8,0.5
		c-0.6-0.4-1.2-0.7-1.7-1.2c-3.2-2.3-6.4-4.7-9.6-7c-0.7-0.5-1.4-1-2.2-1.5C287.1,173.9,286.6,174,286.1,174.1
		c0.1-0.2,0.1-0.2,0.2,0C286.2,174.1,286.1,174.1,286.1,174.1z"/>
	<path class="st0" d="M255.9,187.1c0.6,0.6,1.3,0.7,2.1,1c4.2,1.2,8.4,2.4,12.5,3.6c0.8,0.2,1.5,0.4,2.3,0.7
		c0.5,0.2,0.6,0.7,0.1,1.2c-0.2,0.2-0.4,0.4-0.7,0.6c-4.1,3.4-8.9,5-14.2,4.9c-8.1-0.2-15.6-5.3-18.7-12.8c-0.2-0.5-0.4-1.1-0.6-1.7
		c-0.1-0.4,0-0.8,0.2-1.1c0.2-0.2,0.4-0.5,0.6-0.7c4.1-4.4,9.3-6.6,15.3-6.9c8.6,0.3,15.1,4.1,19.2,11.8c0.1,0.2,0.1,0.4,0.2,0.6
		c0.1,0.2-0.2,0.7-0.5,0.6c-1.4-0.1-2.8-0.2-4.1-0.3c-3-0.3-6.1-0.7-9.1-1c-1-0.1-2-0.2-2.9-0.4C256.9,187,256.4,186.9,255.9,187.1z
		"/>
	<path class="st0" d="M334.5,150.1c0.1,0.3,0.1,0.6,0.3,0.8c0.5,0.6,1.1,1.2,1.6,1.7c2.9,3,5.8,6,8.7,8.9c0.3,0.3,0.6,0.7,0.9,1.2
		c0.1,0.2,0,0.4-0.2,0.5c-0.4,0.1-0.7,0.4-1.1,0.4c-6.3,0.9-12-0.3-17-4.3c-5.4-4.4-8-10.2-7.9-17.1c0-0.8,0.1-1.6,0.3-2.4
		c0.3-2.1,0.3-2.1,2.2-2.6c11.9-3.3,23,3.8,26.1,14.1c0.8,2.6,1.2,5.2,0.8,7.9c0,0.4-0.6,0.7-0.9,0.5c-0.5-0.3-1-0.6-1.5-1
		c-3.2-2.3-6.4-4.7-9.6-7c-0.6-0.5-1.3-0.9-1.9-1.4C335.1,150.2,334.8,150.2,334.5,150.1c-0.2-0.2-0.3-0.5-0.4-0.8
		c-0.2,0.1-0.3,0-0.1-0.2c0.1,0,0.1,0.1,0.2,0.1C334,149.8,334,149.8,334.5,150.1z"/>
	<path class="st0" d="M535.7,284.7c-0.9-0.7-1.7-0.9-2.5-1.1c-4.1-1.2-8.2-2.3-12.3-3.5c-0.9-0.2-1.7-0.5-2.5-0.8
		c-0.1-0.5,0.1-0.8,0.4-1.1c2.5-2.3,5.5-3.9,8.8-4.7c10.6-2.7,21.3,2.9,25.1,13.2c0.1,0.2,0.1,0.4,0.2,0.6c0.1,0.4,0,0.8-0.2,1.1
		c-0.2,0.2-0.3,0.5-0.6,0.7c-4,4.3-9.1,6.7-15,6.9c-9.7,0.2-16.7-5.7-19.6-12c-0.3-0.6,0-1,0.6-1c0.2,0,0.4,0,0.6,0
		c0.4,0,0.8,0,1.2,0.1c2.6,0.3,5.1,0.6,7.7,0.9c2.3,0.3,4.5,0.5,6.8,0.7C534.8,284.8,535.1,284.8,535.7,284.7z"/>
	<path class="st0" d="M390.4,245c-0.9-0.8-1.6-1-2.3-1.2c-4.2-1.2-8.4-2.4-12.5-3.6c-0.8-0.2-1.5-0.4-2.3-0.7
		c-0.5-0.2-0.6-0.7-0.1-1.1c0.2-0.2,0.4-0.4,0.7-0.6c4.2-3.5,9.1-5.1,14.5-4.9c7.5,0.2,15.8,5.1,19,14.2c0.2,0.6,0.1,1.2-0.4,1.6
		c-3.4,3.8-7.6,6.1-12.7,7c-7.7,1.3-17.1-2.2-21.7-10.7c-0.2-0.3-0.3-0.7-0.5-1.1c-0.2-0.4,0.1-0.9,0.5-0.9c1.3,0.1,2.6,0.1,3.8,0.3
		c3.2,0.3,6.5,0.7,9.7,1C387.4,244.7,388.6,244.8,390.4,245z"/>
	<path class="st0" d="M428.9,186.3c-0.1,0.4,0.2,0.7,0.5,1c1.7,1.8,3.4,3.6,5.2,5.3c1.7,1.8,3.4,3.5,5.2,5.3
		c0.2,0.2,0.4,0.5,0.5,0.7c0.1,0.1,0,0.5-0.1,0.5c-1.1,0.3-2.1,0.6-3.2,0.7c-9.6,0.8-18.4-4.9-21.6-13.8c-1.2-3.3-1.5-6.7-1.1-10.2
		c0.1-0.5,0.2-1,0.4-1.4c0.1-0.4,0.4-0.7,0.8-0.8c0.9-0.3,1.9-0.7,2.8-0.8c12.3-2.3,22.3,5.6,24.7,15.7c0.5,2.2,0.8,4.5,0.5,6.8
		c-0.1,0.4-0.5,0.7-0.9,0.5c-0.4-0.3-0.8-0.5-1.2-0.8c-3.1-2.3-6.2-4.5-9.3-6.8c-0.7-0.5-1.4-1.1-2.2-1.5
		C429.5,186.3,429.2,186.4,428.9,186.3c0.1-0.3-0.2-0.5-0.5-0.8c-0.2-0.2-0.5-0.4-0.7-0.6c-0.2,0-0.3,0-0.1-0.2
		c0.1,0.1,0.1,0.1,0.2,0.2c0.2,0.3,0.3,0.6,0.7,0.6C428.4,186.1,428.4,186.1,428.9,186.3z"/>
	<path class="st0" d="M535.2,344c-0.8-3.1-1.4-5.7-2-8.3c-0.7-2.7-1.4-5.3-2-8c-0.1-0.6-0.3-1.2,0.1-1.7c0.2,0,0.4,0,0.6,0
		c9.4,2.9,14.7,11.6,14.7,19.8c0,5.4-1.7,10.1-5.2,14.1c-0.4,0.5-0.9,0.7-1.6,0.6c-7.8-1.5-14.6-7.5-16.6-15.9
		c-1.4-5.9-0.3-11.4,2.9-16.4c0.2-0.2,0.4-0.5,0.6-0.6c0.1-0.1,0.4-0.1,0.5,0c0.3,0.5,0.6,1,0.8,1.5c1.8,4.1,3.6,8.1,5.4,12.2
		C533.9,342.1,534.1,343,535.2,344z"/>
	<path class="st0" d="M510.8,260c-0.8-0.1-1.6,0-2.3,0.2c-3.9,1-7.9,2-11.8,3c-1,0.2-1.9,0.5-2.9,0.7c-0.4,0.1-0.7-0.4-0.6-0.8
		c0-0.1,0-0.2,0.1-0.3c2.9-7.9,8.4-12.8,16.7-14.3c6.4-1.1,12.1,0.7,17.1,4.8c0.6,0.5,0.8,1.1,0.6,1.8c-1.4,6.7-5.2,11.8-11.3,14.7
		c-7.1,3.4-14.2,2.9-20.9-1.3c-0.2-0.2-0.5-0.4-0.6-0.6c-0.1-0.1-0.1-0.5,0-0.5c0.5-0.3,1-0.6,1.5-0.9c3.7-1.6,7.4-3.3,11.1-4.9
		c1-0.4,2-0.9,3-1.4C510.6,260.3,510.6,260,510.8,260c0.1-0.1,0.3-0.2,0.4-0.2c0-0.1-0.1-0.1-0.1-0.2
		C511,259.7,510.9,259.8,510.8,260z"/>
	<path class="st0" d="M428.9,118.4c-0.7-0.4-1.1-0.2-1.4-0.1c-4.9,1.2-9.8,2.5-14.6,3.7c-0.5,0.1-1,0.1-1.5,0.2
		c-0.1,0-0.3-0.3-0.3-0.4c0-0.4,0.1-0.8,0.2-1.2c2.9-7.5,8.3-12.2,16.2-13.7c6.5-1.2,12.3,0.5,17.4,4.8c0.6,0.5,0.8,1.1,0.6,1.8
		c-2.1,8.5-7.3,14.1-15.8,16.3c-5.7,1.5-11.2,0.4-16.2-2.7c-0.3-0.2-0.6-0.5-0.9-0.7c-0.2-0.2-0.1-0.6,0.1-0.7
		c0.5-0.3,1.1-0.5,1.6-0.8c3.9-1.7,7.8-3.4,11.6-5.2C426.8,119.4,427.7,118.9,428.9,118.4z"/>
	<path class="st0" d="M371.5,165.8c0.6,0.4,0.8,0.9,1,1.5c1.9,4.3,3.8,8.7,5.8,13c0.3,0.6,0.5,1.3,1.1,1.7c0.3-0.4,0.1-0.7,0-1.1
		c-1.2-4.9-2.5-9.8-3.7-14.7c-0.1-0.5-0.1-1-0.1-1.4c0-0.1,0.2-0.3,0.4-0.3c0.2,0,0.4,0,0.6,0c7.7,2.7,12.4,8.1,14.2,16.1
		c1,6.5-0.4,12.4-4.6,17.5c-0.6,0.7-1.2,1-2.1,0.8c-0.4-0.1-0.8-0.1-1.2-0.2c-0.4-0.1-0.8-0.2-1.1-0.4c-7.7-2.7-12.5-8.1-14.2-16.1
		c-1.2-5.6,0-10.8,3.1-15.6C370.9,166.3,371.3,166,371.5,165.8z"/>
	<path class="st0" d="M438.5,275.1c-0.2-0.8-0.4-1.7-0.6-2.5c-0.7-4.4-1.3-8.8-2-13.2c-0.1-0.5-0.2-1-0.4-1.4
		c-0.1-0.1-0.3-0.2-0.5-0.4c0,0.9,0,1.6-0.1,2.4c-0.1,4.4-0.1,8.9-0.2,13.3c0,0.6-0.1,1.2-0.1,1.8c0,0.2-0.4,0.5-0.7,0.4
		c-0.3-0.1-0.6-0.2-0.8-0.4c-4.8-3.3-7.9-7.8-8.9-13.5c-1.5-8.8,1.4-16,8.6-21.3c0.7-0.5,1.4-0.6,2.2-0.2c0.2,0.1,0.4,0.2,0.5,0.3
		c7.2,4.2,11,10.4,11,18.7c0,6.2-2.4,11.3-6.9,15.5C439.5,274.8,439.2,275.2,438.5,275.1z"/>
	<path class="st0" d="M330.5,252.7c0.7-0.8,0.9-1.4,1.1-2.1c1.2-4.2,2.4-8.4,3.6-12.5c0.2-0.9,0.5-1.7,0.8-2.5
		c0.1-0.4,0.7-0.4,1-0.2c0.1,0.1,0.3,0.3,0.4,0.4c9.3,10.6,5.9,27.7-8,33.5c-0.5,0.2-0.9,0.4-1.4,0.4c-0.3,0-0.6,0-0.8-0.2
		c-0.4-0.3-0.8-0.6-1.1-0.9c-4.8-4.8-7.1-10.6-6.3-17.5c0.8-7.5,4.8-13,11.4-16.6c0.2-0.1,0.6-0.2,0.8-0.2c0.2,0,0.4,0.1,0.4,0.3
		c0,0.4,0.1,0.8,0,1.2c-0.3,3.1-0.6,6.3-1,9.4c-0.1,1.2-0.3,2.4-0.4,3.5C330.8,250,330.7,251.1,330.5,252.7z"/>
	<path class="st0" d="M504.9,326.8c0.7-0.2,0.8-0.8,1.1-1.3c2.4-4,4.8-8,7.2-11.9c0.4-0.6,0.8-1.1,1.2-1.7c0.1-0.1,0.4-0.1,0.5,0
		c0.3,0.3,0.5,0.6,0.7,1c1.5,3.1,2.1,6.3,2,9.8c-0.2,6.4-2.8,11.6-7.7,15.7c-3.3,2.7-7.1,4.2-11.3,4.7c-0.3,0-0.6,0-0.9,0
		c-0.4,0-0.8-0.2-1-0.5c-1.8-2.4-2.9-5.2-3.4-8.1c-1-5.8,0.1-11.2,3.5-16.1c3-4.3,7.2-7,12.2-8.3c0.5-0.1,1-0.1,1.5-0.1
		c0.2,0,0.5,0.4,0.4,0.7c-0.3,0.8-0.6,1.7-0.9,2.5c-1.6,4.1-3.1,8.1-4.7,12.2C505,325.6,504.8,326.2,504.9,326.8z"/>
	<path class="st0" d="M235,216.8c4.6-1.1,9.2-2.3,13.8-3.4c1-0.2,1.9-0.4,2.9-0.7c0.3-0.1,0.6,0.3,0.5,0.6c-0.1,0.6-0.2,1.2-0.5,1.7
		c-3,7.2-8.3,11.6-16,13c-6.5,1.2-12.3-0.6-17.4-4.8c-0.6-0.5-0.8-1.1-0.6-1.8c2.1-8.8,7.6-14.3,16.4-16.5c5.9-1,11.4-0.2,16.4,3.4
		c0.3,0.2,0.4,0.8,0,1c-0.6,0.3-1.2,0.6-1.9,0.9c-3.6,1.6-7.2,3.2-10.8,4.8c-0.8,0.4-1.6,0.7-2.4,1.2
		C235,216.2,234.9,216.5,235,216.8c-0.1,0-0.3-0.1-0.4-0.1c-0.1,0-0.1,0.1-0.2,0.1C234.6,217,234.8,216.7,235,216.8z"/>
	<path class="st0" d="M493.5,236.6c-0.4-0.7-1.1-0.8-1.8-1c-3.6-1-7.2-2-10.8-3.1c-1.3-0.4-2.7-0.8-4-1.2c-0.5-0.2-0.6-0.7-0.2-1.2
		c0.3-0.3,0.6-0.5,0.9-0.8c3.9-3.1,8.4-4.7,13.4-4.7c7.5-0.1,16,4.4,19.5,13.4c0.1,0.3,0.2,0.6,0.3,0.8c0.2,0.6,0.1,1.2-0.4,1.7
		c-3,3.4-6.6,5.6-11,6.7c-9.6,2.3-19.2-2.3-23.6-10.7c-0.2-0.3-0.3-0.7-0.5-1.1c-0.1-0.2,0.3-0.6,0.5-0.6c0.8,0,1.6,0,2.4,0.1
		c2.1,0.2,4.1,0.4,6.2,0.7c2.6,0.3,5.1,0.6,7.7,0.9C492.6,236.7,493,236.6,493.5,236.6z"/>
	<path class="st0" d="M364.9,125.3c-0.2,0.2-0.5,0.4-0.6,0.6c-0.3,0.8-0.5,1.7-0.7,2.6c-1.2,4.1-2.3,8.2-3.5,12.3
		c-0.1,0.4-0.3,0.7-0.4,1.1c-0.1,0.3-0.6,0.4-0.7,0.2c-0.3-0.3-0.6-0.5-0.9-0.8c-3.1-3.7-4.8-8-5-12.8c-0.3-10.8,6.7-18.3,14.2-20.8
		c0.6-0.2,1.2-0.1,1.6,0.3c4.2,3.7,6.7,8.3,7.2,13.9c0.5,5.9-1,11.2-4.9,15.7c-1.9,2.2-4.1,4-6.7,5.3c-0.2,0.1-0.4,0.1-0.6,0.2
		c-0.2,0.1-0.7-0.2-0.7-0.4c0.2-2.1,0.4-4.1,0.6-6.2c0.3-3.1,0.7-6.3,1-9.4C364.9,126.5,364.8,125.9,364.9,125.3
		c0-0.2,0-0.2,0.1-0.3c0,0,0-0.1,0-0.2C365,125,364.9,125.2,364.9,125.3z"/>
	<path class="st0" d="M545,315c-0.2-0.2-0.5-0.3-0.7-0.5c-3.7-3.8-7.4-7.7-11.1-11.5c-0.2-0.2-0.4-0.4-0.6-0.7
		c-0.3-0.3-0.2-0.8,0.2-1c0.2-0.1,0.4-0.2,0.6-0.2c4.8-0.8,9.5-0.4,13.8,1.9c5.9,3.2,9.6,8.1,11,14.6c0.6,2.7,0.5,5.5,0,8.3
		c-0.1,0.5-0.4,0.9-0.9,1.1c-1.3,0.6-2.6,0.9-4,1c-11.9,1.6-21.1-6.3-23.5-15.5c-0.6-2.3-0.7-4.7-0.6-7.1c0-0.4,0.5-0.7,0.8-0.5
		c0.4,0.3,0.8,0.5,1.2,0.8c3.3,2.4,6.5,4.8,9.8,7.2c0.9,0.6,1.8,1.3,2.7,1.9c0.4,0.2,0.7,0.2,1.1,0.1c0,0.2,0,0.3-0.1,0.1
		C544.9,315,544.9,315,545,315z"/>
	<path class="st0" d="M273.6,227c0.2-0.3,0.4-0.7,0.7-0.9c3.5-3.5,7.1-6.9,10.6-10.3c0.2-0.2,0.4-0.4,0.7-0.6c0.4-0.3,1-0.1,1.1,0.5
		c0,0.1,0.1,0.2,0.1,0.3c0.9,5.1,0.3,10.1-2.4,14.6c-3.2,5.5-8,8.9-14.2,10.2c-2.7,0.6-5.5,0.5-8.3,0c-0.5-0.1-0.9-0.4-1.1-0.9
		c-0.7-1.8-1.1-3.6-1.2-5.5c-0.7-10.7,6.4-20,16.6-22.2c2.1-0.5,4.3-0.6,6.5-0.2c0.1,0,0.3,0.4,0.3,0.4c-0.3,0.5-0.6,1-0.9,1.5
		c-2.4,3.4-4.9,6.7-7.3,10.1c-0.5,0.6-0.9,1.3-1.3,2C273.3,226.3,273.5,226.7,273.6,227c-0.6-0.2-0.6-0.2-0.7,0.3
		c0,0-0.2,0.1-0.2,0.1l0.1,0C273.1,227.2,273.4,227.1,273.6,227z"/>
	<path class="st0" d="M423.9,321.2c0.8,0.3,1.5,0.5,2.3,0.8c3.5,1.3,7,2.7,10.5,4c0.6,0.2,1.3,0.5,1.9,0.7c0.2,0.1,0.4,0,0.4-0.2
		c0-0.1-0.1-0.2-0.1-0.2c-0.6-0.4-1.1-0.8-1.7-1.1c-3.3-2-6.6-4-9.9-5.9c-0.5-0.3-1-0.6-1.5-1c-0.2-0.2-0.3-0.6,0-0.7
		c0.2-0.2,0.5-0.4,0.7-0.5c11.1-5.3,23.8,0.8,27.1,12.1c0.2,0.6,0.3,1.1,0.4,1.7c0.6,3.4,0.8,3.3-2.5,5c-10.7,5.3-23.7,0-27.2-11.7
		c-0.2-0.7-0.4-1.3-0.5-2C423.6,321.9,423.8,321.6,423.9,321.2z"/>
	<path class="st0" d="M482,310.2c-2.4-2.5-4.8-5-7.2-7.4c-0.2-0.2-0.4-0.5-0.6-0.7c-0.2-0.3,0-0.9,0.3-1c2.9-0.6,5.7-0.5,8.5,0.5
		c6.3,2.3,10.5,8,10.5,15c0,3.8-0.2,4-4.2,4.6c-7.7,1.1-15.2-3.7-17.3-11.2c-0.5-1.7-0.7-3.5-0.5-5.3c0-0.6,0.6-0.9,1-0.5
		c1.9,1.4,3.8,2.8,5.8,4.2c0.9,0.6,1.8,1.3,2.7,1.9C481.3,310.5,481.7,310.4,482,310.2c-0.2,0.5-0.2,0.5,0.5,0.8l0,0.1
		c0,0-0.1,0-0.1,0C482.2,310.8,482.1,310.5,482,310.2z"/>
	<path class="st0" d="M358.4,352.4c-1.9,0.8-3.9,0.7-5.8,1.1c-1.8,0.4-3.7,0.6-5.4,0.9c-0.3,0.3-0.2,0.4,0.1,0.4
		c2.6,0.1,5.1,0.1,7.7,0.2c1.1,0,2.2,0.1,3.3,0.1c0.3,0,0.6,0.6,0.4,0.9c-1.6,2.5-3.8,4.3-6.5,5.5c-6.1,2.7-14.1,1.1-18.4-5.2
		c-0.3-0.4-0.4-0.9-0.1-1.4c2.8-5.3,7.1-8.1,13.1-8.3c4.5-0.2,8.3,1.5,11.4,4.8C358.3,351.6,358.3,351.6,358.4,352.4z"/>
	<path class="st0" d="M455.2,304.9c7.4-0.1,12.8,5.4,13.7,11.2c0.1,0.5,0.2,1,0.2,1.5c0,0.3-0.2,0.6-0.4,0.8
		c-0.2,0.2-0.4,0.4-0.7,0.5c-6.8,4.1-16.7,1.6-19.9-7.4c-0.2-0.5-0.2-1.2-0.3-1.7c0-0.2,0.4-0.5,0.7-0.4c1.2,0.4,2.4,0.9,3.6,1.3
		c1.7,0.6,3.3,1.3,5,1.9c0.1,0,0.3-0.1,0.4-0.2c-0.1-0.1-0.1-0.2-0.2-0.2c-0.9-0.6-1.8-1.2-2.7-1.8c-1.7-1-3.4-2.1-5.1-3.1
		c-0.3-0.2-0.3-0.8,0-1c1.2-0.7,2.5-1.1,3.9-1.3C454.1,304.9,454.8,304.9,455.2,304.9z"/>
	<path class="st0" d="M405.5,111.9c-0.3,0.1-0.7,0.1-0.8,0.3c-0.5,1.4-0.9,2.8-1.3,4.2c-0.3,0.9-0.6,1.9-0.9,2.8
		c-0.1,0.2-0.6,0.3-0.8,0.1c-1.8-1.8-2.7-4.1-3-6.6c-0.7-5.8,2.6-11,7.8-13c0.6-0.2,1.2-0.2,1.7,0.3c5.5,5,5.4,13.6-0.4,18.5
		c-0.7,0.6-1.5,1-2.2,1.4c-0.4,0.2-0.9,0-0.8-0.4c0-0.1,0-0.2,0-0.3C404.9,116.7,405.2,114.3,405.5,111.9c0-0.3,0-0.4,0-0.6
		c0-0.1,0-0.2,0-0.3c0,0-0.1-0.1-0.1-0.1c0,0.2-0.1,0.3-0.1,0.5C405.3,111.5,405.4,111.7,405.5,111.9z"/>
	<path class="st0" d="M387.7,121.4c-0.6,0.2-0.7,0.7-0.9,1.1c-0.6,2-1.1,4-1.7,6c-0.1,0.4-0.3,0.7-0.4,1.1c-0.1,0.2-0.6,0.3-0.8,0.1
		c-0.6-0.5-1-1.2-1.4-1.9c-4.1-7-0.4-15.4,6.4-17.8c0.5-0.2,1-0.1,1.4,0.3c5.6,5,5.4,13.8-0.5,18.7c-0.7,0.6-1.4,1.1-2.3,1.3
		c-0.2,0.1-0.6-0.2-0.6-0.4c0-0.5,0-1,0.1-1.5C387.2,126.1,387.4,123.8,387.7,121.4z"/>
	<path class="st0" d="M400.7,144.5c-0.5-0.6-1.1-0.7-1.8-0.9c-2.1-0.6-4.2-1.2-6.3-1.8c-0.2,0-0.3-0.2-0.4-0.3c0-0.1,0-0.2,0-0.3
		c0.2-0.2,0.3-0.5,0.5-0.7c6.4-5,15.3-2.7,18.7,4.1c0.2,0.4,0.3,0.7,0.5,1.1c0.3,0.6,0.2,1.1-0.3,1.6c-1.8,2.1-4.2,3.3-6.9,3.8
		c-6.2,1.1-11.3-2.5-13.1-6.5c-0.2-0.4,0.1-0.9,0.5-0.9c0.3,0,0.6,0,0.9,0.1c2.4,0.3,4.7,0.5,7.1,0.8
		C400.3,144.6,400.5,144.5,400.7,144.5z"/>
	<path class="st0" d="M388.1,156.9c0.1-0.3,0.1-0.6-0.1-0.8c-0.5-0.4-0.9-0.7-1.4-1c-1.4-0.9-2.9-1.7-4.3-2.6
		c-0.4-0.3-0.9-0.5-1.1-1c0.2-0.2,0.4-0.4,0.6-0.5c7.4-3.4,16.1,1.1,17.4,9.6c0,0.1,0,0.2,0,0.3c0.1,0.6-0.1,1.2-0.7,1.5
		c-2.4,1.5-5,2.3-7.9,1.9c-6.6-0.9-9.9-5.6-10.7-9.6c0-0.2,0-0.4,0.1-0.5c0.1-0.1,0.4-0.2,0.5-0.2c2.5,0.9,4.9,1.9,7.4,2.9
		C388,156.7,388.1,156.9,388.1,156.9c0.1,0,0.1-0.1,0.2-0.1c0,0,0.1,0,0.2,0.1C388.4,157,388.3,157,388.1,156.9z"/>
	<path class="st0" d="M419.8,345c-3.6,0-6.6-1.2-9-3.8c-0.2-0.2-0.4-0.6-0.3-0.8c0.1-0.2,0.4-0.4,0.7-0.4c2.3-0.4,4.7-0.8,7-1.2
		c0.1,0,0.2-0.1,0.2-0.2c0.1-0.2,0-0.3-0.2-0.3c-0.9-0.1-1.8-0.1-2.7-0.2c-1.4-0.1-2.8-0.1-4.2-0.1c-0.3,0-0.6-0.1-0.8-0.2
		c-0.1-0.1-0.2-0.3-0.2-0.5c0-0.2,0.1-0.4,0.2-0.5c4.8-6.6,14.8-6.9,19.9,0c0.5,0.6,0.4,1.3,0.1,1.9
		C428.5,342.4,424.4,345.1,419.8,345z"/>
	<path class="st0" d="M454.2,237.9c-0.4,0.2-0.8,0.1-1.1-0.2c-1.8-1.3-3.7-2.7-5.5-4c-0.3-0.2-0.6-0.4-0.9-0.6
		c-0.2,0.2-0.2,0.4,0,0.6c1.6,1.6,3.2,3.3,4.7,4.9c0.3,0.4,0.6,0.7,0.9,1.2c0.1,0.1-0.1,0.4-0.2,0.5c-0.8,0.4-1.7,0.5-2.6,0.4
		c-7.9-0.2-12.4-6.7-12.2-12.3c0-0.5,0-1,0.1-1.5c0.1-1.1,0.5-1.7,1.5-1.9c4-1,7.7-0.4,10.9,2.2c3.3,2.6,4.9,6.1,4.6,10.4
		C454.3,237.7,454.2,237.8,454.2,237.9z"/>
	<path class="st0" d="M480.7,257.8c-0.4-0.2-0.7-0.1-1.1,0.1c-1.4,0.8-2.8,1.5-4.2,2.3c-0.7,0.4-1.4,0.8-2.1,1.1
		c-0.2,0.1-0.6,0.3-0.8,0.1c-0.4-0.2-0.3-0.7-0.3-1c0-0.9,0.3-1.7,0.6-2.6c1.7-4.9,6.3-8.2,11.5-8.3c1.8,0,3.5,0.3,5.2,1.1
		c0.6,0.3,1,0.7,0.9,1.4c0,1.1,0,2.2-0.3,3.2c-1.7,7.4-9.4,11.2-15.7,8.9c-0.4-0.1-0.5-0.6-0.2-0.9c0.4-0.3,0.7-0.7,1.1-1
		C477,260.7,478.8,259.2,480.7,257.8c0-0.1,0-0.2,0-0.2L480.7,257.8z"/>
	<path class="st0" d="M438.7,222.1c-5-0.1-8.2-1.7-10.7-4.9c-0.5-0.6-0.6-1.2-0.2-1.9c2.3-4,5.7-6.2,10.3-6.5c3.8-0.2,7,1.1,9.5,3.9
		c0.3,0.3,0.2,0.9-0.2,1c-0.9,0.2-1.7,0.4-2.6,0.5c-1.6,0.3-3.1,0.5-4.7,0.8c-0.1,0-0.2,0.2-0.2,0.2c0.1,0.1,0.2,0.3,0.3,0.3
		c1.5,0.1,3,0.2,4.4,0.2c1,0.1,2,0.1,3,0.2c0.2,0,0.5,0.5,0.3,0.7c-0.3,0.5-0.6,1-1,1.4C444.9,220.4,441.6,222.2,438.7,222.1z"/>
	<path class="st0" d="M526.4,317.3c0,0.1,0,0.3,0,0.4C526.5,317.6,526.5,317.4,526.4,317.3C526.5,317.3,526.4,317.3,526.4,317.3z"/>
	<path class="st0" d="M405.2,126.5c0.1-0.2,0.1-0.3,0.2-0.5C405.7,126.4,405.2,126.2,405.2,126.5
		C405.1,126.4,405.2,126.5,405.2,126.5z"/>
</g>
<text transform="matrix(1 0 0 1 282.1903 460.7768)" class="st0 st1 st2">Sensei BonsaiKa</text>
</svg>
