<?xml version="1.0" encoding="utf-8"?>
<!-- Generator: Adobe Illustrator 24.1.0, SVG Export Plug-In . SVG Version: 6.00 Build 0)  -->
<svg version="1.1" id="Calque_1" xmlns="http://www.w3.org/2000/svg" xmlns:xlink="http://www.w3.org/1999/xlink" x="0px" y="0px"
	 viewBox="0 0 983 534.4" style="enable-background:new 0 0 983 534.4;" xml:space="preserve">
<style type="text/css">
	.st0{font-family:'DastinRegular';}
	.st1{font-size:27px;}
</style>
<g>
	<path d="M655.4,241.9c-0.2,0-0.5,0-0.5-0.1c-0.5-0.7-0.9-1.5-1.4-2.3c-3.7-6.4-8.6-11.5-14.9-15.4c-4.6-2.8-9.6-4.7-14.9-5.7
		c-5.2-1-10.4-1.3-15.7-0.8c-9.1,0.7-17.7,3-26.2,6.2c-10.6,4-20.5,9.4-29.4,16.5c-11.3,9-20.2,20-26.5,33.1c-1,2.1-1.9,4.4-2.7,6.6
		c-0.3,0.8-0.6,1.7-0.7,2.6c-0.3,2.7-0.6,5.5-0.9,8.3c-0.1,0.5,0.3,0.9,0.9,0.9c0.9,0,1.8,0.1,2.7,0.1c18.3,0.1,36.6,0.2,54.9,0.3
		c5.6,0,11.3,0.1,16.9,0.1c0.9,0,1.8,0.1,2.7,0.1c0.4,0,0.7,0.4,0.8,0.8c0,0.2,0.1,0.4,0.1,0.6c0,0.6,0,1.2,0,1.8
		c-0.1,21.3-0.2,42.6-0.3,63.8c0,1.3-0.1,2.6-0.1,3.9c0,0.5-0.5,0.8-1.1,0.6c-0.3-0.1-0.6-0.2-0.8-0.3c-0.9-0.4-1.8-0.7-2.8-1.1
		c-13.6-5.2-27.5-9.3-41.8-12.2c-6.5-1.3-13-2.4-19.6-3.3c-4.8-0.6-9.6-1.1-14.5-1.4c-10.2-0.8-20.4-0.8-30.6-0.5
		c-4.7,0.1-9.5,0.6-14.2,1c-4,0.4-8.1,0.9-12.1,1.4c-4.9,0.7-9.8,1.5-14.6,2.5c-12.4,2.5-24.6,5.8-36.6,10c-2.3,0.8-4.7,1.7-7,2.5
		c-0.2,0.1-0.7-0.2-0.7-0.4c0-0.3-0.1-0.6-0.1-0.9c0-0.6,0-1.2,0-1.8c0.1-21.1,0.2-42.2,0.3-63.2c0-1.4,0.1-2.8,0.1-4.1
		c0-0.5,0.5-0.9,1-0.9c1,0,2,0,3,0c27,0.2,54,0.4,81,0.5c1.1,0,2.2,0,3.3-0.1c0.3,0,0.8-0.4,0.8-0.8c0.1-0.6,0.1-1.2,0.1-1.8
		c0.2-11.2,0.3-22.4-0.2-33.5c-0.1-1.3-0.1-2.6-0.1-3.9c-0.2-5.9-0.6-11.9-1.1-17.8c-0.4-4.5-0.8-9.1-1.4-13.6
		c-1.7-13.2-4.1-26.2-8.3-38.8c-2.2-6.8-5-13.3-8.5-19.5c-2.4-4.2-5.2-8.2-8.4-11.9c-7.8-8.9-17.5-14.7-28.9-17.6
		c-4-1-8.1-1.6-12.3-2c-4.7-0.4-9.5-0.4-14.2-0.1c-7.5,0.5-14.9,1.6-22.3,3.1c-0.4,0.1-0.8-0.1-0.7-0.3c0.1-0.1,0.2-0.3,0.4-0.4
		c0.2-0.2,0.5-0.3,0.8-0.4c0.6-0.3,1.2-0.6,1.9-0.9c7-3.3,14.3-5.6,21.9-7.3c4.7-1.1,9.5-1.8,14.4-2.2c3.6-0.3,7.3-0.3,11-0.3
		c10.4,0,20.5,1.7,30.4,4.7c0.8,0.3,1.7,0.5,2.6,0.7c0.1,0,0.4-0.1,0.5-0.3c0.2-0.3,0.3-0.7,0.4-1.1c1.9-7.7,4.5-15.2,7.7-22.4
		c4.1-9.2,9.2-17.7,15.5-25.5c5.5-6.7,11.8-12.6,19-17.3c5.7-3.8,11.8-6.8,18.4-8.9c0.8-0.2,1.5-0.5,2.3-0.2l-0.1-0.1
		c-0.8,0.8-1.9,1.1-2.8,1.6c-8.2,4.4-15.5,9.8-22,16.5c-7.6,7.7-13.4,16.6-17,26.9c-2.2,6.2-3.5,12.6-4,19.1
		c-0.4,5-0.2,9.9,0.2,14.8c0.3,3.1,0.7,6.1,1.2,9.1c1,6.1,2.1,12.1,3.5,18.1c1.8,7.5,4,14.9,7,22c2,4.8,4.3,9.3,7.1,13.7
		c2.1,3.2,4.4,6.1,7,8.8c6.4,6.5,14.1,10.5,23.1,11.9c2.2,0.4,4.5,0.5,6.8,0.6c4.2,0.2,8.3-0.7,12.1-2.5c3.5-1.6,6.7-3.8,9.6-6.4
		c3.5-3.1,6.5-6.6,9.2-10.5c5.2-7.5,8.7-15.8,10.5-24.7c1.3-6.3,1.6-12.6,0.7-18.9c-1.2-8.4-4.3-16-9.5-22.7
		c-0.5-0.7-1.1-1.4-1.6-2.1c-0.1-0.1-0.1-0.2-0.1-0.3c0.1-0.2,0.3-0.2,0.5-0.1c8.8,7.1,15.7,15.6,20,26.1c2.7,6.5,3.8,13.3,3.5,20.3
		c-0.2,5.7-1.5,11.2-3.5,16.5c-0.3,0.9-0.7,1.9-1,2.8c-0.1,0.2,0.2,0.6,0.5,0.6c0.5,0,1,0.1,1.5,0.1c7.7,0.2,15.1,1.5,22.4,4.2
		c7.9,2.9,15,7.2,20.9,13.2c4.6,4.6,8.1,10,10.8,15.9c2.1,4.6,3.6,9.4,4.6,14.4C655.3,240.6,655.3,241.3,655.4,241.9
		C655.4,242,655.4,241.9,655.4,241.9z"/>
	<path d="M460.3,252c0.3-0.3,0.5-0.6,0.8-0.8c8.1-4.5,16.2-9,24.3-13.6c0.3-0.1,0.6-0.2,0.8-0.3c0.2-0.1,0.6,0.3,0.6,0.5
		c0,0.3,0.1,0.6,0.1,0.9c-0.7,10.2-4.9,18.6-12.9,25c-4.4,3.5-9.5,5.8-15,6.7c-7.1,1.1-14,0.3-20.5-2.9c-0.3-0.1-0.5-0.3-0.8-0.4
		c-0.4-0.2-0.5-0.6-0.6-1c0-0.4-0.1-0.8-0.1-1.2c-0.8-13.1,6.1-25.4,17.6-31.6c4.8-2.6,9.9-3.9,15.3-4c4.3-0.1,8.5,0.6,12.5,2.2
		c0.5,0.2,0.6,0.8,0.2,1.2c-0.2,0.2-0.4,0.4-0.7,0.6c-0.5,0.4-0.9,0.7-1.4,1.1c-6.2,5-12.3,9.9-18.5,14.9c-0.8,0.6-1.5,1.3-2.3,1.9
		C460.1,251.5,460.2,251.8,460.3,252c-0.5-0.3-0.9-0.3-1.4,0c-0.2,0.1-0.4,0.2-0.5,0.2c0.2-0.2,0.2-0.2,0.2,0.1
		c0-0.1-0.1-0.1-0.1-0.2C459,252.1,459.7,252.1,460.3,252z"/>
	<path d="M511.5,140.7c0-0.2,0-0.4-0.1-0.5c-0.6-0.4-1.1-0.8-1.7-1.1c-3.6-2.1-7.1-4.2-10.7-6.4c-0.6-0.3-1.2-0.6-1.6-1.2
		c0.1-0.4,0.4-0.7,0.8-0.8c4-1.9,8.2-2.7,12.7-2c6.9,1.2,12,4.8,15.4,10.9c1.4,2.5,2.1,5.3,2.4,8.2c0.1,0.9-0.3,1.5-1,2
		c-2.9,1.9-6,3-9.4,3.4c-9.9,1-19.5-4.9-22.5-15.4c-0.2-0.7-0.2-1.4-0.3-2c0-0.3,0.3-0.6,0.6-0.5c0.7,0.2,1.3,0.4,2,0.6
		c4,1.5,7.9,3,11.9,4.6C510.4,140.5,510.9,140.8,511.5,140.7c0.3,0.6,0.9,0.5,1.4,0.4c0.1,0,0.2,0,0.2,0c0.1,0.2,0,0.3-0.2,0.2
		c0,0-0.1-0.1-0.1-0.2C512.5,140.7,512.1,140.5,511.5,140.7z"/>
	<path d="M453.7,104.1c0.2,0.1,0.3,0.2,0.5,0.3c3.7,3.8,7.4,7.7,11.1,11.5c0.3,0.4,0.7,0.7,0.5,1.3c-9,3-22.7-2.5-25.6-15.9
		c-0.5-2.2-0.6-4.3-0.4-6.5c0-0.7,0.2-1.4,0.4-2c0.1-0.6,0.5-1.1,1.1-1.3c0.6-0.2,1.1-0.4,1.7-0.5c12.6-3.1,24.4,5.6,26,17.4
		c0.2,1.7,0.5,3.3,0.1,5c-0.1,0.2-0.5,0.5-0.7,0.3c-0.3-0.2-0.7-0.4-1-0.6c-1-0.7-1.9-1.4-2.9-2.1c-2.9-2.1-5.7-4.2-8.6-6.3
		c-0.4-0.3-0.8-0.6-1.3-0.8C454.3,103.9,454,104.1,453.7,104.1c0.1-0.4-0.1-0.8-0.4-1.1c0,0.2,0,0.2-0.1,0c0,0,0.1,0,0.1,0
		C453.5,103.4,453.6,103.7,453.7,104.1z"/>
	<path d="M609.4,132.2c-0.7,0.2-1.1,0.8-1.6,1.2c-3,2.9-6,5.8-9,8.7c-0.4,0.3-0.7,0.7-1.1,1c-0.2,0.2-0.7,0-0.7-0.2
		c-0.1-0.3-0.3-0.5-0.3-0.8c-1-6.5,0.2-12.4,4.5-17.5c4.7-5.5,10.7-7.9,17.9-7.6c0.2,0,0.4,0,0.6,0.1c2.9,0.5,2.8,0.2,3.5,3.1
		c2.9,11.5-4.1,22.6-14.8,25.5c-2.4,0.7-4.8,1-7.3,0.7c-0.5-0.1-0.8-0.6-0.5-1.1c0.2-0.2,0.3-0.5,0.5-0.7c0.5-0.7,1-1.4,1.6-2.2
		c2-2.8,4.1-5.6,6.1-8.4c0.3-0.5,0.8-0.9,0.8-1.5c0.3-0.1,0.5-0.3,0.5-0.7c0.3-0.2,0.6-0.3,0.9-0.5c-0.3,0.1-0.3,0-0.1-0.1
		c0,0.1,0.1,0.1,0.1,0.2c-0.2,0-0.4,0-0.6,0.1c-0.1,0.1-0.2,0.3-0.3,0.4C609.8,131.6,609.5,131.8,609.4,132.2z"/>
	<path d="M534.8,190.7c-0.2,0.2-0.3,0.5-0.6,0.6c-4.6,2.6-9.1,5.1-13.7,7.6c-0.5,0.3-1,0-1-0.6c0.4-10.5,8.4-18.4,17.5-19.9
		c4.3-0.7,8.2-0.1,12.2,1.5c1,0.4,1.5,1,1.6,2.2c0.5,9.9-6.2,19.6-17.2,21.7c-3.7,0.7-7.5,0.5-11.1-0.9c-0.4-0.2-0.6-0.6-0.2-0.9
		c0.4-0.4,0.9-0.8,1.3-1.1c3.1-2.5,6.2-5,9.2-7.4c0.8-0.6,1.6-1.2,2.2-2C535,191.2,534.9,191,534.8,190.7c0.4,0.3,0.8,0.4,1.2,0.1
		c0.2-0.1,0.5-0.2,0.7-0.3c-0.2,0.2-0.2,0.2-0.2-0.1c0,0.1,0.1,0.1,0.1,0.2C536.1,190.6,535.5,190.7,534.8,190.7z"/>
	<path d="M588.6,111.3c-0.2,0.2-0.4,0.2-0.5,0.4c-0.4,1.3-0.8,2.6-1.2,4c-1,3.5-2,7-3,10.5c-0.2,0.7-0.5,1.3-0.7,1.9
		c-0.5,0.1-0.8-0.1-1.1-0.4c-2.2-2.5-3.8-5.3-4.6-8.5c-2.8-10.4,2.6-21,12.4-25c0.5-0.2,0.9-0.3,1.4-0.5c0.5-0.2,1,0,1.4,0.3
		c0.1,0.1,0.2,0.1,0.2,0.2c11.1,10,8.8,27.6-4.3,34.5c-0.3,0.2-0.7,0.3-1.1,0.4c-0.2,0.1-0.4-0.1-0.4-0.3c0-0.7,0-1.4,0.1-2.1
		c0.5-4.4,1-8.8,1.5-13.2C588.7,112.7,588.8,112,588.6,111.3z"/>
	<path d="M467.6,208.9c0.3,0,0.6,0.1,0.9,0c0.8-0.4,1.6-0.8,2.4-1.3c3.5-2,7.1-3.9,10.6-5.9c0.4-0.2,0.9-0.5,1.5-0.3
		c0,0.4,0.1,0.9,0.1,1.4c-1.1,10.7-8.7,17.1-16.3,18.8c-4.8,1-9.4,0.6-13.9-1.5c-0.7-0.3-1-0.8-1.1-1.6c-0.6-9.5,5.3-19.2,16.3-21.9
		c3.9-1,7.8-0.7,11.7,0.6c0.3,0.1,0.6,0.3,0.7,0.5c0.2,0.4-0.2,0.7-0.5,0.9c-0.2,0.2-0.5,0.4-0.7,0.6c-2.1,1.7-4.2,3.3-6.2,5
		c-1.5,1.2-3.1,2.5-4.6,3.7C467.9,208.2,467.6,208.5,467.6,208.9c-0.4-0.1-0.7,0.1-0.9,0.5c0,0.1,0,0.2,0,0.3
		c0.3-0.1,0.5-0.1,0.8-0.2C467.7,209.3,467.7,209.1,467.6,208.9z"/>
	<path d="M435.6,155.5c0.6,0.1,1.1-0.3,1.6-0.6c3.7-2.1,7.4-4.1,11.1-6.2c0.6-0.3,1.2-0.6,1.8-0.9c0.4-0.2,0.8,0.1,0.8,0.6
		c0,0.7,0,1.4-0.1,2.1c-1.5,9.7-8.6,16.5-17.6,18c-4.2,0.7-8.3,0.1-12.1-1.7c-0.9-0.4-1.4-1-1.4-2c-0.4-10.4,6.4-19.2,16.2-21.6
		c4-1,8-0.7,11.9,0.7c0.5,0.2,0.6,0.8,0.2,1.1c-0.2,0.2-0.4,0.4-0.7,0.6c-1.2,0.9-2.3,1.9-3.5,2.8c-2.6,2.1-5.2,4.2-7.8,6.3
		C435.7,154.8,435.4,155.1,435.6,155.5c-0.6-0.2-1,0.4-1.6,0.4c0.1,0,0.1-0.1,0.2-0.1c0,0.1,0.1,0.1,0.1,0.2
		c-0.2,0.1-0.2,0.1-0.2-0.1c0.2,0,0.4,0,0.6,0.1C435,156,435.3,155.9,435.6,155.5z"/>
	<path d="M415,98.7c0.3,0.1,0.6,0.2,0.8,0.4c3.8,3.9,7.6,7.8,11.3,11.7c0.2,0.2,0.4,0.5,0.5,0.7c0.1,0.1-0.1,0.5-0.1,0.5
		c-0.7,0.2-1.5,0.5-2.3,0.6c-11.8,1.3-20.9-6.4-23.2-16c-0.7-3-0.7-6.1-0.2-9.1c0.1-0.5,0.4-0.9,0.9-1.1c1-0.3,2.1-0.7,3.1-0.9
		c4.2-0.6,8.3-0.4,12.2,1.3c8.3,3.6,12.9,11.7,12.8,19.4c0,0.6,0,1.2-0.1,1.8c0,0.4-0.5,0.7-0.8,0.5c-0.6-0.4-1.2-0.7-1.7-1.2
		c-3.2-2.3-6.4-4.7-9.6-7c-0.7-0.5-1.4-1-2.2-1.5C416,98.5,415.5,98.6,415,98.7c0.1-0.2,0.1-0.2,0.2,0
		C415.1,98.7,415.1,98.7,415,98.7z"/>
	<path d="M384.8,111.8c0.6,0.6,1.3,0.7,2.1,1c4.2,1.2,8.4,2.4,12.5,3.6c0.8,0.2,1.5,0.4,2.3,0.7c0.5,0.2,0.6,0.7,0.1,1.2
		c-0.2,0.2-0.4,0.4-0.7,0.6c-4.1,3.4-8.9,5-14.2,4.9c-8.1-0.2-15.6-5.3-18.7-12.8c-0.2-0.5-0.4-1.1-0.6-1.7c-0.1-0.4,0-0.8,0.2-1.1
		c0.2-0.2,0.4-0.5,0.6-0.7c4.1-4.4,9.3-6.6,15.3-6.9c8.6,0.3,15.1,4.1,19.2,11.8c0.1,0.2,0.1,0.4,0.2,0.6c0.1,0.2-0.2,0.7-0.5,0.6
		c-1.4-0.1-2.8-0.2-4.1-0.3c-3-0.3-6.1-0.7-9.1-1c-1-0.1-2-0.2-2.9-0.4C385.8,111.7,385.3,111.5,384.8,111.8z"/>
	<path d="M463.5,74.7c0.1,0.3,0.1,0.6,0.3,0.8c0.5,0.6,1.1,1.2,1.6,1.7c2.9,3,5.8,6,8.7,8.9c0.3,0.3,0.6,0.7,0.9,1.2
		c0.1,0.2,0,0.4-0.2,0.5c-0.4,0.1-0.7,0.4-1.1,0.4c-6.3,0.9-12-0.3-17-4.3c-5.4-4.4-8-10.2-7.9-17.1c0-0.8,0.1-1.6,0.3-2.4
		c0.3-2.1,0.3-2.1,2.2-2.6c11.9-3.3,23,3.8,26.1,14.1c0.8,2.6,1.2,5.2,0.8,7.9c0,0.4-0.6,0.7-0.9,0.5c-0.5-0.3-1-0.6-1.5-1
		c-3.2-2.3-6.4-4.7-9.6-7c-0.6-0.5-1.3-0.9-1.9-1.4C464,74.8,463.7,74.8,463.5,74.7c-0.2-0.2-0.3-0.5-0.4-0.8
		c-0.2,0.1-0.3,0-0.1-0.2c0.1,0,0.1,0.1,0.2,0.1C462.9,74.5,462.9,74.5,463.5,74.7z"/>
	<path d="M664.7,209.4c-0.9-0.7-1.7-0.9-2.5-1.1c-4.1-1.2-8.2-2.3-12.3-3.5c-0.9-0.2-1.7-0.5-2.5-0.8c-0.1-0.5,0.1-0.8,0.4-1.1
		c2.5-2.3,5.5-3.9,8.8-4.7c10.6-2.7,21.3,2.9,25.1,13.2c0.1,0.2,0.1,0.4,0.2,0.6c0.1,0.4,0,0.8-0.2,1.1c-0.2,0.2-0.3,0.5-0.6,0.7
		c-4,4.3-9.1,6.7-15,6.9c-9.7,0.2-16.7-5.7-19.6-12c-0.3-0.6,0-1,0.6-1c0.2,0,0.4,0,0.6,0c0.4,0,0.8,0,1.2,0.1
		c2.6,0.3,5.1,0.6,7.7,0.9c2.3,0.3,4.5,0.5,6.8,0.7C663.8,209.4,664.1,209.4,664.7,209.4z"/>
	<path d="M519.3,169.7c-0.9-0.8-1.6-1-2.3-1.2c-4.2-1.2-8.4-2.4-12.5-3.6c-0.8-0.2-1.5-0.4-2.3-0.7c-0.5-0.2-0.6-0.7-0.1-1.1
		c0.2-0.2,0.4-0.4,0.7-0.6c4.2-3.5,9.1-5.1,14.5-4.9c7.5,0.2,15.8,5.1,19,14.2c0.2,0.6,0.1,1.2-0.4,1.6c-3.4,3.8-7.6,6.1-12.7,7
		c-7.7,1.3-17.1-2.2-21.7-10.7c-0.2-0.3-0.3-0.7-0.5-1.1c-0.2-0.4,0.1-0.9,0.5-0.9c1.3,0.1,2.6,0.1,3.8,0.3c3.2,0.3,6.5,0.7,9.7,1
		C516.3,169.3,517.6,169.5,519.3,169.7z"/>
	<path d="M557.9,110.9c-0.1,0.4,0.2,0.7,0.5,1c1.7,1.8,3.4,3.6,5.2,5.3c1.7,1.8,3.4,3.5,5.2,5.3c0.2,0.2,0.4,0.5,0.5,0.7
		c0.1,0.1,0,0.5-0.1,0.5c-1.1,0.3-2.1,0.6-3.2,0.7c-9.6,0.8-18.4-4.9-21.6-13.8c-1.2-3.3-1.5-6.7-1.1-10.2c0.1-0.5,0.2-1,0.4-1.4
		c0.1-0.4,0.4-0.7,0.8-0.8c0.9-0.3,1.9-0.7,2.8-0.8c12.3-2.3,22.3,5.6,24.7,15.7c0.5,2.2,0.8,4.5,0.5,6.8c-0.1,0.4-0.5,0.7-0.9,0.5
		c-0.4-0.3-0.8-0.5-1.2-0.8c-3.1-2.3-6.2-4.5-9.3-6.8c-0.7-0.5-1.4-1.1-2.2-1.5C558.4,111,558.1,111,557.9,110.9
		c0.1-0.3-0.2-0.5-0.5-0.8c-0.2-0.2-0.5-0.4-0.7-0.6c-0.2,0-0.3,0-0.1-0.2c0.1,0.1,0.1,0.1,0.2,0.2c0.2,0.3,0.3,0.6,0.7,0.6
		C557.3,110.7,557.3,110.7,557.9,110.9z"/>
	<path d="M664.2,268.7c-0.8-3.1-1.4-5.7-2-8.3c-0.7-2.7-1.4-5.3-2-8c-0.1-0.6-0.3-1.2,0.1-1.7c0.2,0,0.4,0,0.6,0
		c9.4,2.9,14.7,11.6,14.7,19.8c0,5.4-1.7,10.1-5.2,14.1c-0.4,0.5-0.9,0.7-1.6,0.6c-7.8-1.5-14.6-7.5-16.6-15.9
		c-1.4-5.9-0.3-11.4,2.9-16.4c0.2-0.2,0.4-0.5,0.6-0.6c0.1-0.1,0.4-0.1,0.5,0c0.3,0.5,0.6,1,0.8,1.5c1.8,4.1,3.6,8.1,5.4,12.2
		C662.8,266.8,663,267.6,664.2,268.7z"/>
	<path d="M639.7,184.6c-0.8-0.1-1.6,0-2.3,0.2c-3.9,1-7.9,2-11.8,3c-1,0.2-1.9,0.5-2.9,0.7c-0.4,0.1-0.7-0.4-0.6-0.8
		c0-0.1,0-0.2,0.1-0.3c2.9-7.9,8.4-12.8,16.7-14.3c6.4-1.1,12.1,0.7,17.1,4.8c0.6,0.5,0.8,1.1,0.6,1.8c-1.4,6.7-5.2,11.8-11.3,14.7
		c-7.1,3.4-14.2,2.9-20.9-1.3c-0.2-0.2-0.5-0.4-0.6-0.6c-0.1-0.1-0.1-0.5,0-0.5c0.5-0.3,1-0.6,1.5-0.9c3.7-1.6,7.4-3.3,11.1-4.9
		c1-0.4,2-0.9,3-1.4C639.5,184.9,639.6,184.7,639.7,184.6c0.1-0.1,0.3-0.2,0.4-0.2c0-0.1-0.1-0.1-0.1-0.2
		C640,184.4,639.8,184.5,639.7,184.6z"/>
	<path d="M557.8,43c-0.7-0.4-1.1-0.2-1.4-0.1c-4.9,1.2-9.8,2.5-14.6,3.7c-0.5,0.1-1,0.1-1.5,0.2c-0.1,0-0.3-0.3-0.3-0.4
		c0-0.4,0.1-0.8,0.2-1.2c2.9-7.5,8.3-12.2,16.2-13.7c6.5-1.2,12.3,0.5,17.4,4.8c0.6,0.5,0.8,1.1,0.6,1.8
		c-2.1,8.5-7.3,14.1-15.8,16.3c-5.7,1.5-11.2,0.4-16.2-2.7c-0.3-0.2-0.6-0.5-0.9-0.7c-0.2-0.2-0.1-0.6,0.1-0.7
		c0.5-0.3,1.1-0.5,1.6-0.8c3.9-1.7,7.8-3.4,11.6-5.2C555.8,44,556.7,43.6,557.8,43z"/>
	<path d="M500.5,90.4c0.6,0.4,0.8,0.9,1,1.5c1.9,4.3,3.8,8.7,5.8,13c0.3,0.6,0.5,1.3,1.1,1.7c0.3-0.4,0.1-0.7,0-1.1
		c-1.2-4.9-2.5-9.8-3.7-14.7c-0.1-0.5-0.1-1-0.1-1.4c0-0.1,0.2-0.3,0.4-0.3c0.2,0,0.4,0,0.6,0c7.7,2.7,12.4,8.1,14.2,16.1
		c1,6.5-0.4,12.4-4.6,17.5c-0.6,0.7-1.2,1-2.1,0.8c-0.4-0.1-0.8-0.1-1.2-0.2c-0.4-0.1-0.8-0.2-1.1-0.4c-7.7-2.7-12.5-8.1-14.2-16.1
		c-1.2-5.6,0-10.8,3.1-15.6C499.9,90.9,500.2,90.7,500.5,90.4z"/>
	<path d="M567.4,199.7c-0.2-0.8-0.4-1.7-0.6-2.5c-0.7-4.4-1.3-8.8-2-13.2c-0.1-0.5-0.2-1-0.4-1.4c-0.1-0.1-0.3-0.2-0.5-0.4
		c0,0.9,0,1.6-0.1,2.4c-0.1,4.4-0.1,8.9-0.2,13.3c0,0.6-0.1,1.2-0.1,1.8c0,0.2-0.4,0.5-0.7,0.4c-0.3-0.1-0.6-0.2-0.8-0.4
		c-4.8-3.3-7.9-7.8-8.9-13.5c-1.5-8.8,1.4-16,8.6-21.3c0.7-0.5,1.4-0.6,2.2-0.2c0.2,0.1,0.4,0.2,0.5,0.3c7.2,4.2,11,10.4,11,18.7
		c0,6.2-2.4,11.3-6.9,15.5C568.5,199.5,568.1,199.8,567.4,199.7z"/>
	<path d="M459.4,177.3c0.7-0.8,0.9-1.4,1.1-2.1c1.2-4.2,2.4-8.4,3.6-12.5c0.2-0.9,0.5-1.7,0.8-2.5c0.1-0.4,0.7-0.4,1-0.2
		c0.1,0.1,0.3,0.3,0.4,0.4c9.3,10.6,5.9,27.7-8,33.5c-0.5,0.2-0.9,0.4-1.4,0.4c-0.3,0-0.6,0-0.8-0.2c-0.4-0.3-0.8-0.6-1.1-0.9
		c-4.8-4.8-7.1-10.6-6.3-17.5c0.8-7.5,4.8-13,11.4-16.6c0.2-0.1,0.6-0.2,0.8-0.2c0.2,0,0.4,0.1,0.4,0.3c0,0.4,0.1,0.8,0,1.2
		c-0.3,3.1-0.6,6.3-1,9.4c-0.1,1.2-0.3,2.4-0.4,3.5C459.7,174.6,459.6,175.8,459.4,177.3z"/>
	<path d="M633.9,251.4c0.7-0.2,0.8-0.8,1.1-1.3c2.4-4,4.8-8,7.2-11.9c0.4-0.6,0.8-1.1,1.2-1.7c0.1-0.1,0.4-0.1,0.5,0
		c0.3,0.3,0.5,0.6,0.7,1c1.5,3.1,2.1,6.3,2,9.8c-0.2,6.4-2.8,11.6-7.7,15.7c-3.3,2.7-7.1,4.2-11.3,4.7c-0.3,0-0.6,0-0.9,0
		c-0.4,0-0.8-0.2-1-0.5c-1.8-2.4-2.9-5.2-3.4-8.1c-1-5.8,0.1-11.2,3.5-16.1c3-4.3,7.2-7,12.2-8.3c0.5-0.1,1-0.1,1.5-0.1
		c0.2,0,0.5,0.4,0.4,0.7c-0.3,0.8-0.6,1.7-0.9,2.5c-1.6,4.1-3.1,8.1-4.7,12.2C634,250.3,633.7,250.8,633.9,251.4z"/>
	<path d="M363.9,141.4c4.6-1.1,9.2-2.3,13.8-3.4c1-0.2,1.9-0.4,2.9-0.7c0.3-0.1,0.6,0.3,0.5,0.6c-0.1,0.6-0.2,1.2-0.5,1.7
		c-3,7.2-8.3,11.6-16,13c-6.5,1.2-12.3-0.6-17.4-4.8c-0.6-0.5-0.8-1.1-0.6-1.8c2.1-8.8,7.6-14.3,16.4-16.5c5.9-1,11.4-0.2,16.4,3.4
		c0.3,0.2,0.4,0.8,0,1c-0.6,0.3-1.2,0.6-1.9,0.9c-3.6,1.6-7.2,3.2-10.8,4.8c-0.8,0.4-1.6,0.7-2.4,1.2
		C363.9,140.9,363.9,141.2,363.9,141.4c-0.1,0-0.3-0.1-0.4-0.1c-0.1,0-0.1,0.1-0.2,0.1C363.5,141.7,363.7,141.3,363.9,141.4z"/>
	<path d="M622.4,161.3c-0.4-0.7-1.1-0.8-1.8-1c-3.6-1-7.2-2-10.8-3.1c-1.3-0.4-2.7-0.8-4-1.2c-0.5-0.2-0.6-0.7-0.2-1.2
		c0.3-0.3,0.6-0.5,0.9-0.8c3.9-3.1,8.4-4.7,13.4-4.7c7.5-0.1,16,4.4,19.5,13.4c0.1,0.3,0.2,0.6,0.3,0.8c0.2,0.6,0.1,1.2-0.4,1.7
		c-3,3.4-6.6,5.6-11,6.7c-9.6,2.3-19.2-2.3-23.6-10.7c-0.2-0.3-0.3-0.7-0.5-1.1c-0.1-0.2,0.3-0.6,0.5-0.6c0.8,0,1.6,0,2.4,0.1
		c2.1,0.2,4.1,0.4,6.2,0.7c2.6,0.3,5.1,0.6,7.7,0.9C621.6,161.3,622,161.3,622.4,161.3z"/>
	<path d="M493.8,50c-0.2,0.2-0.5,0.4-0.6,0.6c-0.3,0.8-0.5,1.7-0.7,2.6c-1.2,4.1-2.3,8.2-3.5,12.3c-0.1,0.4-0.3,0.7-0.4,1.1
		c-0.1,0.3-0.6,0.4-0.7,0.2c-0.3-0.3-0.6-0.5-0.9-0.8c-3.1-3.7-4.8-8-5-12.8c-0.3-10.8,6.7-18.3,14.2-20.8c0.6-0.2,1.2-0.1,1.6,0.3
		c4.2,3.7,6.7,8.3,7.2,13.9c0.5,5.9-1,11.2-4.9,15.7c-1.9,2.2-4.1,4-6.7,5.3c-0.2,0.1-0.4,0.1-0.6,0.2c-0.2,0.1-0.7-0.2-0.7-0.4
		c0.2-2.1,0.4-4.1,0.6-6.2c0.3-3.1,0.7-6.3,1-9.4C493.8,51.1,493.8,50.5,493.8,50c0-0.2,0-0.2,0.1-0.3c0,0,0-0.1,0-0.2
		C493.9,49.7,493.9,49.8,493.8,50z"/>
	<path d="M673.9,239.6c-0.2-0.2-0.5-0.3-0.7-0.5c-3.7-3.8-7.4-7.7-11.1-11.5c-0.2-0.2-0.4-0.4-0.6-0.7c-0.3-0.3-0.2-0.8,0.2-1
		c0.2-0.1,0.4-0.2,0.6-0.2c4.8-0.8,9.5-0.4,13.8,1.9c5.9,3.2,9.6,8.1,11,14.6c0.6,2.7,0.5,5.5,0,8.3c-0.1,0.5-0.4,0.9-0.9,1.1
		c-1.3,0.6-2.6,0.9-4,1c-11.9,1.6-21.1-6.3-23.5-15.5c-0.6-2.3-0.7-4.7-0.6-7.1c0-0.4,0.5-0.7,0.8-0.5c0.4,0.3,0.8,0.5,1.2,0.8
		c3.3,2.4,6.5,4.8,9.8,7.2c0.9,0.6,1.8,1.3,2.7,1.9c0.4,0.2,0.7,0.2,1.1,0.1c0,0.2,0,0.3-0.1,0.1
		C673.8,239.6,673.9,239.6,673.9,239.6z"/>
	<path d="M402.6,151.6c0.2-0.3,0.4-0.7,0.7-0.9c3.5-3.5,7.1-6.9,10.6-10.3c0.2-0.2,0.4-0.4,0.7-0.6c0.4-0.3,1-0.1,1.1,0.5
		c0,0.1,0.1,0.2,0.1,0.3c0.9,5.1,0.3,10.1-2.4,14.6c-3.2,5.5-8,8.9-14.2,10.2c-2.7,0.6-5.5,0.5-8.3,0c-0.5-0.1-0.9-0.4-1.1-0.9
		c-0.7-1.8-1.1-3.6-1.2-5.5c-0.7-10.7,6.4-20,16.6-22.2c2.1-0.5,4.3-0.6,6.5-0.2c0.1,0,0.3,0.4,0.3,0.4c-0.3,0.5-0.6,1-0.9,1.5
		c-2.4,3.4-4.9,6.7-7.3,10.1c-0.5,0.6-0.9,1.3-1.3,2C402.2,150.9,402.4,151.3,402.6,151.6c-0.6-0.2-0.6-0.2-0.7,0.3
		c0,0-0.2,0.1-0.2,0.1l0.1,0C402.1,151.8,402.3,151.7,402.6,151.6z"/>
	<path d="M552.8,245.8c0.8,0.3,1.5,0.5,2.3,0.8c3.5,1.3,7,2.7,10.5,4c0.6,0.2,1.3,0.5,1.9,0.7c0.2,0.1,0.4,0,0.4-0.2
		c0-0.1-0.1-0.2-0.1-0.2c-0.6-0.4-1.1-0.8-1.7-1.1c-3.3-2-6.6-4-9.9-5.9c-0.5-0.3-1-0.6-1.5-1c-0.2-0.2-0.3-0.6,0-0.7
		c0.2-0.2,0.5-0.4,0.7-0.5c11.1-5.3,23.8,0.8,27.1,12.1c0.2,0.6,0.3,1.1,0.4,1.7c0.6,3.4,0.8,3.3-2.5,5c-10.7,5.3-23.7,0-27.2-11.7
		c-0.2-0.7-0.4-1.3-0.5-2C552.6,246.5,552.7,246.2,552.8,245.8z"/>
	<path d="M610.9,234.8c-2.4-2.5-4.8-5-7.2-7.4c-0.2-0.2-0.4-0.5-0.6-0.7c-0.2-0.3,0-0.9,0.3-1c2.9-0.6,5.7-0.5,8.5,0.5
		c6.3,2.3,10.5,8,10.5,15c0,3.8-0.2,4-4.2,4.6c-7.7,1.1-15.2-3.7-17.3-11.2c-0.5-1.7-0.7-3.5-0.5-5.3c0-0.6,0.6-0.9,1-0.5
		c1.9,1.4,3.8,2.8,5.8,4.2c0.9,0.6,1.8,1.3,2.7,1.9C610.2,235.1,610.6,235,610.9,234.8c-0.2,0.5-0.2,0.5,0.5,0.8l0,0.1
		c0,0-0.1,0-0.1,0C611.1,235.4,611,235.1,610.9,234.8z"/>
	<path d="M487.3,277.1c-1.9,0.8-3.9,0.7-5.8,1.1c-1.8,0.4-3.7,0.6-5.4,0.9c-0.3,0.3-0.2,0.4,0.1,0.4c2.6,0.1,5.1,0.1,7.7,0.2
		c1.1,0,2.2,0.1,3.3,0.1c0.3,0,0.6,0.6,0.4,0.9c-1.6,2.5-3.8,4.3-6.5,5.5c-6.1,2.7-14.1,1.1-18.4-5.2c-0.3-0.4-0.4-0.9-0.1-1.4
		c2.8-5.3,7.1-8.1,13.1-8.3c4.5-0.2,8.3,1.5,11.4,4.8C487.2,276.2,487.2,276.2,487.3,277.1z"/>
	<path d="M584.1,229.5c7.4-0.1,12.8,5.4,13.7,11.2c0.1,0.5,0.2,1,0.2,1.5c0,0.3-0.2,0.6-0.4,0.8c-0.2,0.2-0.4,0.4-0.7,0.5
		c-6.8,4.1-16.7,1.6-19.9-7.4c-0.2-0.5-0.2-1.2-0.3-1.7c0-0.2,0.4-0.5,0.7-0.4c1.2,0.4,2.4,0.9,3.6,1.3c1.7,0.6,3.3,1.3,5,1.9
		c0.1,0,0.3-0.1,0.4-0.2c-0.1-0.1-0.1-0.2-0.2-0.2c-0.9-0.6-1.8-1.2-2.7-1.8c-1.7-1-3.4-2.1-5.1-3.1c-0.3-0.2-0.3-0.8,0-1
		c1.2-0.7,2.5-1.1,3.9-1.3C583,229.6,583.7,229.5,584.1,229.5z"/>
	<path d="M534.4,36.5c-0.3,0.1-0.7,0.1-0.8,0.3c-0.5,1.4-0.9,2.8-1.3,4.2c-0.3,0.9-0.6,1.9-0.9,2.8c-0.1,0.2-0.6,0.3-0.8,0.1
		c-1.8-1.8-2.7-4.1-3-6.6c-0.7-5.8,2.6-11,7.8-13c0.6-0.2,1.2-0.2,1.7,0.3c5.5,5,5.4,13.6-0.4,18.5c-0.7,0.6-1.5,1-2.2,1.4
		c-0.4,0.2-0.9,0-0.8-0.4c0-0.1,0-0.2,0-0.3C533.8,41.3,534.1,38.9,534.4,36.5c0-0.3,0-0.4,0-0.6c0-0.1,0-0.2,0-0.3
		c0,0-0.1-0.1-0.1-0.1c0,0.2-0.1,0.3-0.1,0.5C534.2,36.2,534.3,36.3,534.4,36.5z"/>
	<path d="M516.6,46c-0.6,0.2-0.7,0.7-0.9,1.1c-0.6,2-1.1,4-1.7,6c-0.1,0.4-0.3,0.7-0.4,1.1c-0.1,0.2-0.6,0.3-0.8,0.1
		c-0.6-0.5-1-1.2-1.4-1.9c-4.1-7-0.4-15.4,6.4-17.8c0.5-0.2,1-0.1,1.4,0.3c5.6,5,5.4,13.8-0.5,18.7c-0.7,0.6-1.4,1.1-2.3,1.3
		c-0.2,0.1-0.6-0.2-0.6-0.4c0-0.5,0-1,0.1-1.5C516.1,50.8,516.4,48.4,516.6,46z"/>
	<path d="M529.6,69.1c-0.5-0.6-1.1-0.7-1.8-0.9c-2.1-0.6-4.2-1.2-6.3-1.8c-0.2,0-0.3-0.2-0.4-0.3c0-0.1,0-0.2,0-0.3
		c0.2-0.2,0.3-0.5,0.5-0.7c6.4-5,15.3-2.7,18.7,4.1c0.2,0.4,0.3,0.7,0.5,1.1c0.3,0.6,0.2,1.1-0.3,1.6c-1.8,2.1-4.2,3.3-6.9,3.8
		c-6.2,1.1-11.3-2.5-13.1-6.5c-0.2-0.4,0.1-0.9,0.5-0.9c0.3,0,0.6,0,0.9,0.1c2.4,0.3,4.7,0.5,7.1,0.8
		C529.2,69.2,529.4,69.2,529.6,69.1z"/>
	<path d="M517,81.5c0.1-0.3,0.1-0.6-0.1-0.8c-0.5-0.4-0.9-0.7-1.4-1c-1.4-0.9-2.9-1.7-4.3-2.6c-0.4-0.3-0.9-0.5-1.1-1
		c0.2-0.2,0.4-0.4,0.6-0.5c7.4-3.4,16.1,1.1,17.4,9.6c0,0.1,0,0.2,0,0.3c0.1,0.6-0.1,1.2-0.7,1.5c-2.4,1.5-5,2.3-7.9,1.9
		c-6.6-0.9-9.9-5.6-10.7-9.6c0-0.2,0-0.4,0.1-0.5c0.1-0.1,0.4-0.2,0.5-0.2c2.5,0.9,4.9,1.9,7.4,2.9C516.9,81.4,517,81.5,517,81.5
		c0.1,0,0.1-0.1,0.2-0.1c0,0,0.1,0,0.2,0.1C517.3,81.6,517.2,81.7,517,81.5z"/>
	<path d="M548.8,269.6c-3.6,0-6.6-1.2-9-3.8c-0.2-0.2-0.4-0.6-0.3-0.8c0.1-0.2,0.4-0.4,0.7-0.4c2.3-0.4,4.7-0.8,7-1.2
		c0.1,0,0.2-0.1,0.2-0.2c0.1-0.2,0-0.3-0.2-0.3c-0.9-0.1-1.8-0.1-2.7-0.2c-1.4-0.1-2.8-0.1-4.2-0.1c-0.3,0-0.6-0.1-0.8-0.2
		c-0.1-0.1-0.2-0.3-0.2-0.5c0-0.2,0.1-0.4,0.2-0.5c4.8-6.6,14.8-6.9,19.9,0c0.5,0.6,0.4,1.3,0.1,1.9
		C557.4,267,553.3,269.7,548.8,269.6z"/>
	<path d="M583.1,162.5c-0.4,0.2-0.8,0.1-1.1-0.2c-1.8-1.3-3.7-2.7-5.5-4c-0.3-0.2-0.6-0.4-0.9-0.6c-0.2,0.2-0.2,0.4,0,0.6
		c1.6,1.6,3.2,3.3,4.7,4.9c0.3,0.4,0.6,0.7,0.9,1.2c0.1,0.1-0.1,0.4-0.2,0.5c-0.8,0.4-1.7,0.5-2.6,0.4c-7.9-0.2-12.4-6.7-12.2-12.3
		c0-0.5,0-1,0.1-1.5c0.1-1.1,0.5-1.7,1.5-1.9c4-1,7.7-0.4,10.9,2.2c3.3,2.6,4.9,6.1,4.6,10.4C583.2,162.3,583.2,162.4,583.1,162.5z"
		/>
	<path d="M609.6,182.4c-0.4-0.2-0.7-0.1-1.1,0.1c-1.4,0.8-2.8,1.5-4.2,2.3c-0.7,0.4-1.4,0.8-2.1,1.1c-0.2,0.1-0.6,0.3-0.8,0.1
		c-0.4-0.2-0.3-0.7-0.3-1c0-0.9,0.3-1.7,0.6-2.6c1.7-4.9,6.3-8.2,11.5-8.3c1.8,0,3.5,0.3,5.2,1.1c0.6,0.3,1,0.7,0.9,1.4
		c0,1.1,0,2.2-0.3,3.2c-1.7,7.4-9.4,11.2-15.7,8.9c-0.4-0.1-0.5-0.6-0.2-0.9c0.4-0.3,0.7-0.7,1.1-1
		C605.9,185.4,607.8,183.9,609.6,182.4c0-0.1,0-0.2,0-0.2L609.6,182.4z"/>
	<path d="M567.7,146.7c-5-0.1-8.2-1.7-10.7-4.9c-0.5-0.6-0.6-1.2-0.2-1.9c2.3-4,5.7-6.2,10.3-6.5c3.8-0.2,7,1.1,9.5,3.9
		c0.3,0.3,0.2,0.9-0.2,1c-0.9,0.2-1.7,0.4-2.6,0.5c-1.6,0.3-3.1,0.5-4.7,0.8c-0.1,0-0.2,0.2-0.2,0.2c0.1,0.1,0.2,0.3,0.3,0.3
		c1.5,0.1,3,0.2,4.4,0.2c1,0.1,2,0.1,3,0.2c0.2,0,0.5,0.5,0.3,0.7c-0.3,0.5-0.6,1-1,1.4C573.8,145,570.6,146.8,567.7,146.7z"/>
	<path d="M655.4,242c0,0.1,0,0.3,0,0.4C655.4,242.2,655.4,242.1,655.4,242C655.4,241.9,655.4,242,655.4,242z"/>
	<path d="M534.2,51.1c0.1-0.2,0.1-0.3,0.2-0.5C534.6,51,534.1,50.9,534.2,51.1C534.1,51,534.2,51.1,534.2,51.1z"/>
</g>
<text transform="matrix(1 0 0 1 411.1246 385.4094)" class="st0 st1">Sensei BonsaiKa</text>
</svg>
